<?xml version="1.0" encoding="utf-8"?>
<!-- Generator: Adobe Illustrator 24.0.2, SVG Export Plug-In . SVG Version: 6.00 Build 0)  -->
<svg version="1.1" id="SvgjsSvg1197" xmlns:svgjs="http://svgjs.com/svgjs"
	 xmlns="http://www.w3.org/2000/svg" xmlns:xlink="http://www.w3.org/1999/xlink" x="0px" y="0px" viewBox="0 0 288 288"
	 style="enable-background:new 0 0 288 288;" xml:space="preserve">
<style type="text/css">
	.st0{fill:#2E186A;}
	.st1{fill:#D3D3D3;}
	.st2{fill:#9DADEC;}
	.st3{fill:#CCE9FF;}
	.st4{fill:#0B4870;}
	.st5{fill:#577BC2;}
	.st6{fill:#CFE6FD;}
	.st7{fill:#514E58;}
	.st8{fill:#3E3B42;}
	.st9{fill:#F1B99E;}
	.st10{fill:#FFE3CA;}
	.st11{fill:#0E538C;}
	.st12{fill:#F2F2F2;}
	.st13{fill:#FCD2B1;}
	.st14{fill:#FFBE55;}
	.st15{fill:#A77860;}
	.st16{fill:#515154;}
	.st17{fill:#D5BBAF;}
</style>
<g id="SvgjsG1199" transform="matrix(1,0,0,1,0,0)">
	<path class="st0" d="M130.8,219.4c0,0,4.2-28.5,29.8-32.9c25.5-4.4,22.4-40.5,57.3-39c34.9,1.4,27.7,35,41.6,42.5
		c13.9,7.5,20.3,29.4,20.3,29.4L130.8,219.4L130.8,219.4z"/>
	<path class="st0" d="M135.2,219.4c0,0,0-23.1-27.4-31.2c-27.4-8.1-20.9-50.5-55.1-44c-34.2,6.5-17.6,49.9-31,59.3
		c-13.4,9.5-10.4,15.9-10.4,15.9L135.2,219.4L135.2,219.4z"/>
	<path class="st1" d="M269.3,219.6l-1,0l18.8-67.3C292.9,154.7,269.3,219.6,269.3,219.6z M262.5,219.7l-17.9-51.1
		c4.6-0.2,10.6,19.8,13.4,30.1c0.9,3.7,1.6,6.1,1.6,6.1s-0.6-2.4-1.6-6.1c-3.8-15-12.6-52.8-7.3-56.4l14,77.4L262.5,219.7z
		 M266.9,219.6l1.6-91.4c6.5,4.4,0.8,79.3,0.8,79.3s11-53.9,17.1-55.3l-18.8,67.3L266.9,219.6z"/>
	<path class="st2" d="M258.1,198.7c1,3.6,1.6,6.1,1.6,6.1S259,202.4,258.1,198.7z"/>
	<path class="st1" d="M265.3,219.6l-14-77.6c7.3-1.3,14,65.5,14,65.5s-4.9-79.5,2.6-79.5c0,0,0,0,0,0l-1.6,91.6L265.3,219.6z
		 M259.9,219.7c0,0-22.3-47.6-16-51c0,0,0.1,0,0.1-0.1l17.8,51L259.9,219.7z"/>
	<path class="st3" d="M267.7,219.6l18.8-67.3c0.2,0,0.4,0,0.6,0c0,0,0,0,0,0l-18.8,67.3L267.7,219.6z M266.3,219.6l1.6-91.6
		c0.2,0,0.4,0.1,0.6,0.2l-1.6,91.4L266.3,219.6z M264.7,219.6l-14-77.4c0.1-0.1,0.2-0.1,0.3-0.2c0.1,0,0.2,0,0.2-0.1l14,77.6
		L264.7,219.6z M261.9,219.7l-17.8-51c0.2-0.1,0.4-0.1,0.6-0.1l17.9,51.1L261.9,219.7z"/>
	<path class="st1" d="M25.8,219.6l-14-77.6c7.3-1.3,14,65.5,14,65.5S21,128,28.4,128c0,0,0,0,0,0l-1.6,91.6L25.8,219.6z M23.1,219.7
		L5.2,168.5c4.6-0.2,10.6,19.8,13.4,30.1c0.9,3.7,1.6,6.1,1.6,6.1s-0.6-2.4-1.6-6.1c-3.8-15-12.6-52.8-7.3-56.4l14,77.4L23.1,219.7z
		"/>
	<path class="st2" d="M18.6,198.7c1,3.6,1.6,6.1,1.6,6.1S19.5,202.4,18.6,198.7z"/>
	<path class="st1" d="M20.4,219.7c0,0-22.3-47.6-16-51c0,0,0.1,0,0.1-0.1l17.8,51L20.4,219.7z M29.9,219.6l-1,0l18.8-67.3
		C53.4,154.7,29.9,219.6,29.9,219.6z M27.5,219.6l1.6-91.4c6.5,4.4,0.8,79.3,0.8,79.3s11-53.9,17.1-55.3l-18.8,67.3L27.5,219.6z"/>
	<path class="st3" d="M28.2,219.6L47,152.3c0.2,0,0.4,0,0.6,0c0,0,0,0,0,0l-18.8,67.3L28.2,219.6z M26.9,219.6l1.6-91.6
		c0.2,0,0.4,0.1,0.6,0.2l-1.6,91.4L26.9,219.6z M25.2,219.6l-14-77.4c0.1-0.1,0.2-0.1,0.3-0.2c0.1,0,0.2,0,0.2-0.1l14,77.6
		L25.2,219.6z M22.4,219.7l-17.8-51c0.2-0.1,0.4-0.1,0.6-0.1l17.9,51.1L22.4,219.7z"/>
	<g>
		<path class="st4" d="M247.2,158.1l-14.5,61l-1.2,0l-3.5-17.9C227.9,193.9,229.1,173,247.2,158.1z M247.5,219.2l-6.4-0.1l26.5-29.9
			C261,212.8,247.5,219.2,247.5,219.2z M267.5,188.5l-27.2,30.7l-1.7,0l8.4-17.2C250.1,197.1,256.8,189.2,267.5,188.5z M246.9,200.8
			l-8.9,18.3l-4.5,0l14.4-60.5C254.4,175.2,249.8,192.6,246.9,200.8z M221,219c0,0-20.4-7.9-20.8-39l27,39.1L221,219z M227.5,201.7
			L231,219l-3.1,0l-27.5-39.8C219.9,187.3,225.8,197.4,227.5,201.7z"/>
		<path class="st0" d="M267.8,188.4c-0.1,0.3-0.1,0.5-0.2,0.8l-26.5,29.9l-0.8,0l27.2-30.7C267.6,188.5,267.7,188.4,267.8,188.4z
			 M247.5,157.9c0.1,0.2,0.2,0.4,0.3,0.7l-14.4,60.5l-0.6,0l14.5-61C247.3,158,247.4,158,247.5,157.9z M200.4,179.2l27.5,39.8
			l-0.7,0l-27-39.1c0-0.3,0-0.6,0-0.8C200.3,179.1,200.3,179.2,200.4,179.2z"/>
		<path class="st5" d="M245,205.3c-0.1,0.3-0.2,0.4-0.2,0.4S244.9,205.6,245,205.3z"/>
		<path class="st5" d="M245,205.3c-0.1,0.3-0.2,0.4-0.2,0.4S244.9,205.6,245,205.3c0.3-0.6,0.9-1.8,1.9-3.4l-8.4,17.2l-0.7,0
			l8.9-18.3C246.1,203,245.4,204.6,245,205.3z M228.2,203.7c0,0-0.1-0.9-0.2-2.6l3.5,17.9l-0.6,0l-3.4-17.4
			C228.1,203,228.2,203.7,228.2,203.7z"/>
	</g>
	<g>
		<path class="st4" d="M52.6,206l-3.2,14h-1.6l-9.3-62.9C54.8,173.4,54,195.8,52.6,206z M74.5,177.2L50.7,220H50l3.5-15.5
			C56.3,196.5,62.4,183.5,74.5,177.2z M55,220h-3.5L75,177.5C74.7,210.4,55,220,55,220z M36.4,220c0,0-16.1-7.5-23.6-32.6L39.1,220
			H36.4z M36.1,206.9L41,220h-1.1L13,186.6C25.8,190.6,32.8,200.6,36.1,206.9z M38,157.8l9.2,62.2h-5.6l-4.9-13.1
			C34,197.2,29.9,176.2,38,157.8z"/>
		<path class="st0" d="M75,176.9c0,0.2,0,0.4,0,0.6L51.4,220h-0.7l23.7-42.8C74.6,177.1,74.8,177,75,176.9z M38.4,156.9
			c0,0,0.1,0.1,0.1,0.1l9.3,62.9h-0.6L38,157.8C38.2,157.5,38.3,157.2,38.4,156.9z M13,186.6L39.8,220h-0.8l-26.2-32.6
			c-0.1-0.3-0.2-0.6-0.3-0.9C12.7,186.5,12.9,186.6,13,186.6z"/>
		<path class="st5" d="M51.9,210c-0.2,0.9-0.3,1.5-0.3,1.5S51.7,210.9,51.9,210c0.3-1.2,0.8-3.1,1.6-5.4L50,220h-0.6l3.2-14
			C52.3,207.7,52.1,209,51.9,210z"/>
		<path class="st5" d="M51.9,210c-0.2,1-0.3,1.5-0.3,1.5S51.7,210.9,51.9,210z M38,211.2c0.2,0.7,0.4,1.1,0.4,1.1
			S38.3,211.9,38,211.2c-0.3-0.9-0.8-2.4-1.4-4.4l4.9,13.1H41l-4.9-13.1C37,208.7,37.7,210.3,38,211.2z"/>
		<path class="st5" d="M38,211.2c0.3,0.7,0.4,1.1,0.4,1.1S38.3,211.9,38,211.2z"/>
	</g>
	<path class="st6" d="M143.9,202.4c101.3,0,143.9,16.7,143.9,16.7s-42.6,7-143.9,7c-101.3,0-143.9-7-143.9-7S42.6,202.4,143.9,202.4
		z"/>
	<g>
		<path class="st4" d="M125.3,214.3c0,0-3.7,2.3-6.5,2.5c-2.8,0.2-4.4,0.6-4.6,2.4c-0.2,1.8,7.6,1.2,8.9,1c1.3-0.3,7.4,0.2,8.2-0.3
			c0.8-0.5-0.1-5.4-0.4-6.1C130.6,213.1,125.3,214.3,125.3,214.3z"/>
		<path class="st1" d="M125.5,212.6l0,1.7c0,0,3.9,0.6,5.1-0.5l0.2-1.6L125.5,212.6z"/>
		<path class="st4" d="M144.3,213.8c0,0-2.2,2.6-4.6,3.3c-2.3,0.6-4.9,1.7-4.9,3.2c0,1.5,7.7,1.6,10.4,0.3c2.8-1.3,4.4-1.7,4.8-2.8
			c0.4-1.1-0.6-4.1-0.6-4.4C149.4,212.9,144.3,213.8,144.3,213.8z"/>
		<path class="st1" d="M144.2,212.5c0,0,0,1.5,0.1,1.5c0,0,4.7,0.5,5-0.5c0.3-0.8,0.2-1.8,0.2-1.8L144.2,212.5z"/>
		<path class="st4" d="M132,150.5c0,0-11.7,19.8-14.2,24.5c-2.3,4.4,1.3,13.9,1.9,17c0.6,3.3,6,19.5,5.7,20.6c-0.3,1.1,6-0.4,6-0.4
			s-3.7-28.8-4.1-31.7c-0.4-2.9,12.7-21.1,13.5-19.9c0.8,1.1,1.2,21.3,1.6,24.5c0.4,3.2,1.6,27.2,1.6,27.2s5.7,0.9,6.9-1.1
			c0,0,0.3-25.3,0.4-27.5c0.1-2.2,3-24.5,0.3-34.6C150.1,143.8,132,150.5,132,150.5z"/>
		<path class="st7" d="M145.8,99.4l-5.2,4.9l-0.1,0.1l-2,1.8l-1-0.9l-2.2-2.1l-0.3-0.3l0.8-0.9l0.6-0.7l0.2-0.2l0.8-0.9l0.2-0.2
			l0.8-0.9c0,0,0,0,0,0l2.9-3.2l0.2-0.2l0.5,0.4l0.2,0.2L145.8,99.4z"/>
		<polygon class="st8" points="138.8,105.4 145.1,99.6 141.5,96.4 135.9,102.6 		"/>
		<path class="st9" d="M134.6,106.2c0,0,1.1-0.3,0.8-1.6c-0.3-1.3,0.2-1.6,0.2-1.6l3.8,3.6c0,0-1.8,1.8-2.4,1.8
			C136.3,108.6,134,106.9,134.6,106.2z"/>
		<path class="st9" d="M139.3,106.7c0,0,2.3-1.5,2.5-1.7c0.2-0.2,1.2-1.2,1.7-1.8c0.4-0.6-1.3-0.4-1.7,0.2c-0.5,0.6-0.9,0.8-1.3,0.9
			c-0.3,0.1-2.4,0.3-2.8,0.8C137.3,105.8,139.3,106.7,139.3,106.7z M136.2,102.3c0,0,0.3,0.4,0.5-0.1c0.2-0.4,0.2-1.4-0.4-1.1
			C135.8,101.3,136.2,102.3,136.2,102.3z M136.9,101c0,0,0.1,0.7,0.4,0.4c0.3-0.3,0.7-1.5,0.1-1.5C136.9,100,136.9,101,136.9,101z
			 M137.9,100c0,0,0,0.9,0.4,0.6c0.3-0.2,0.7-1.7,0.1-1.7C137.8,99,137.9,100,137.9,100z M170,149.5c0,0,1.3,0.9,2.1,0.8
			c0.8-0.2,1.9,0,2.3,0c0.5,0.1,2.1-0.2,1.9,0.4c-0.2,0.6-2.6,0.5-3.2,0.6c-0.5,0.1,1.1,1.5,1.2,2c0.1,0.5-3,3.2-3.9,2.1
			c-1-1.1-1.2-3-1.4-3.1c-0.2-0.2-0.8-0.8-0.8-0.8L170,149.5z"/>
		<path class="st9" d="M174.2,153c0,0,2.8,3.6,2.7,4c-0.1,0.4-0.3,0.6-0.6,0.2c-0.3-0.3-2.8-3.4-2.8-3.4s2.4,4.8,2.5,5.2
			c0,0.2-0.4,0.5-0.6,0.4c-0.2-0.2-2.9-4.8-2.9-4.8s2.3,4.5,2.2,4.8c-0.1,0.3-0.5,0.5-0.7,0.1c-0.2-0.3-2.6-4.4-2.6-4.4
			s1.4,3.4,1.2,3.7c-0.1,0.1-0.5,0.4-0.8-0.5c-0.3-0.9-1.4-2.9-1.4-2.9L174.2,153z"/>
		<path class="st10" d="M172,150c0,0-2.8,2.2-3.9,1.9c-1.1-0.3-10.2-12.8-10.9-15c-0.7-2.2-1.5-8.7-1.5-8.7s-2.4,6.5-2.7,9.6
			c-0.3,3.1-1.6,8.9-1.6,8.9l-18.7,1.1c0,0-0.7-1.1-0.4-3.6c0.3-2.4,1.2-8.2,0.6-11.3c-0.5-3.1-0.1-8.5-0.1-8.5s-7.8,2.3-8.7,2.6
			c-0.9,0.3-3.3-1.2-3.9-2.6c-0.6-1.5,14.2-19,14.2-19l3.4,2.9l-4.2,7.2c0.1-0.1,1-0.4,2.2-0.9c2.9-1.1,7.6-2.8,7.6-2.8
			s6.6-0.1,7.1,0c0.5,0.1,7.1,3.3,8,4.1c0.9,0.8,3.6,17.3,4.1,18.4C163.3,135.4,172,150,172,150z"/>
		<path class="st11" d="M132.8,147.8c0,0-0.5,0.5-0.8,2.6c0,0,17.7-0.7,19.6-1.3c0,0,0.3-2.4-0.1-2.4
			C151,146.6,132.8,147.8,132.8,147.8z"/>
		<path class="st9" d="M150.7,111.8c-0.2,0.8-6.3,5.5-6.3,5.5s-1.4-5.2-0.8-5.5c0.2-0.1,0.3-0.5,0.4-1c0.1-0.4,0.1-0.9,0.1-1.2
			c0-0.2,0-0.3,0-0.3s0.8-0.7,1.9-1.6c1.8-1.5,4.3-3.5,4.2-2.6c0,0,0,0.1,0,0.2C149.5,107.1,150.7,111.8,150.7,111.8z"/>
		<polygon class="st12" points="143.7,111.7 142,112.4 142.7,119.4 144.4,117.3 		"/>
		<polygon class="st12" points="150.6,111.4 144.4,117.3 145.2,119.7 152.6,112.6 		"/>
		<path class="st11" d="M147.4,146.8c0,0,0.2,2.4,0.2,3.1l0.8-0.1c0,0,0-2.6-0.1-3L147.4,146.8z M134.3,147.7c0,0-0.5,2.2-0.6,3
			l0.9,0c0,0,0.4-2.7,0.5-3L134.3,147.7z"/>
		<path class="st13" d="M139.5,147.3c0,0,0-0.8,0.1-3.9c0-1.3,0.1-4.7,0.6-6.8c0.7-3.1,0.7-4.5,0.5-7.2c-0.4-4.5,3.1-10,3.1-10
			l0.4,0.1c0,0.1-3.3,5.4-2.9,9.8c0.2,2.7,0.2,4.4-0.5,7.6c-0.4,2-0.5,5.3-0.5,6.5c-0.1,3-0.1,3.8-0.1,3.9L139.5,147.3z"/>
		<path class="st14" d="M144.8,119.6c0,0-0.5,8.5-6,9.7c-5.5,1.2-12.8,6-15,8.7l-2.6,3.5v-3.9c0,0,1.1-6.3,17.4-9
			c0,0,4.7-0.3,4.5-9.2C143.1,119.4,144.8,119.2,144.8,119.6z"/>
		<path class="st15" d="M149,107C149,107,149,107,149,107c0,0-0.3,0.3-0.7,0.8c-0.9,1-2.6,2.5-4.3,3.1c0.1-0.4,0.1-0.9,0.1-1.2
			c-0.2,0-0.4-0.1-0.5-0.1c0.5-0.8,1.3-1.6,1.3-1.6l1.1-0.2L149,107z"/>
		<path class="st9" d="M151.4,99.7c-0.1,0.7-0.5,1.4-1,1.9c0.2,1.1,0,2.8,0,2.8c-0.1,0.2-0.2,0.4-0.3,0.6c-0.5,1-1,1.7-1.1,2
			c0,0,0,0,0,0c-0.1,0.2-0.3,0.5-0.7,0.8c-1,0.9-2.7,2-4.3,1.8c-0.2,0-0.4,0-0.5-0.1c-0.6-0.2-1.4-0.6-1.7-1.4
			c-0.4-0.9-0.6-1.7-0.8-2.5v0c-0.1-0.5-0.2-0.9-0.3-1.4c0,0,0,0,0,0c0-0.2,0-0.3-0.1-0.5c-0.4-3.7,0.6-6.4,1-7.2
			c0.1-0.2,0.1-0.3,0.1-0.3s0.2,0,0.4-0.1l0.2,0.2c1.2,0.1,2.5-0.3,4.7,0c2.7,0.4,0,5,0,5l1.5-0.1c0-0.4,0.1-0.9,0.1-1.3
			C149.1,98.5,151.7,98.2,151.4,99.7z"/>
		<path class="st16" d="M142.2,96.2l0.2,0.2c-0.2,0-0.4-0.1-0.7-0.1c0,0-0.1-0.1-0.2-0.3l0.2-0.2L142.2,96.2z M151.4,99.7
			c-0.1,0.7-0.5,1.4-1,1.9c-0.1-0.4-0.2-0.7-0.4-0.8c-0.7-0.5-1.4,0.5-1.4,0.5c0-0.4,0.1-0.9,0.1-1.3
			C149.1,98.5,151.7,98.2,151.4,99.7z"/>
		<path class="st9" d="M151.4,99.7c-0.1,0.7-0.5,1.4-1,1.9c-0.5,0.5-1,0.9-1.3,0.8c-0.4-0.1-0.5-0.6-0.5-1.2c0-0.4,0.1-0.9,0.1-1.3
			C149.1,98.5,151.7,98.2,151.4,99.7z"/>
		<path class="st13" d="M142.9,119.3c0,0,1,0.9,2.2,0.2c0,0-0.5-2.1-0.7-2.2C144.1,117.2,142.7,118.9,142.9,119.3z"/>
		<path class="st14" d="M141.7,147.1c0,0-2.6,0.1-3.5,0.2l0.1,2.9l3.5-0.2L141.7,147.1z"/>
		<path class="st17" d="M135.9,114.6l-5.9,6.7l3.6-5.8C133.8,115.5,134.7,115.1,135.9,114.6z"/>
	</g>
	<path class="st3" d="M145.6,91c0,0.1,0,0.2-0.1,0.3c-0.1,0-0.2,0-0.3,0C145.4,91.2,145.5,91.1,145.6,91z"/>
	<path class="st3" d="M145.6,91c0,0.1,0,0.2-0.1,0.3c-0.1,0-0.2,0-0.3,0C145.4,91.2,145.5,91.1,145.6,91z"/>
	<path class="st4" d="M150.5,104.4C150.4,104.4,150.4,104.4,150.5,104.4c0,0,0.2-1.7,0-2.8c0.4-0.5,0.8-1.2,1-1.9
		c0.3-1.5-2.3-1.1-2.6,0.3c-0.1,0.4-0.1,0.9-0.1,1.3l-1.5,0.1c0,0,2.6-4.6,0-5c-2.2-0.3-3.5,0.1-4.7,0l-0.2-0.2l-0.5-0.4l-0.2,0.2
		c-0.4-0.6-1.1-2-1.2-3.2c0,0,0-0.1,0-0.1c0-0.2,0-0.4,0-0.6c0,0,0,0,0-0.1c0.1-1.5,1.9-2.6,4-2.6c0.3,0,0.7,0,1,0.1
		c0.2,0.4,0.3,0.8,0.3,1.3c0,0.1,0,0.2,0,0.4c-0.1,0.1-0.2,0.2-0.4,0.3c0.1,0,0.2,0,0.3,0c0-0.1,0-0.2,0.1-0.3
		c0.5-0.4,1.1-0.6,1.7-0.8c0.5-0.1,1.1-0.2,1.6-0.2c2.4,0,4.4,1.3,4.4,2.8v0c0.3,0.4,0.6,1.1,0.6,2.1
		C154.4,99.8,150.7,104.1,150.5,104.4z"/>
	<path class="st4" d="M140.4,92c0,0.2,0,0.4,0,0.6c0-0.1-0.1-0.3-0.1-0.5C140.3,92.1,140.3,92,140.4,92
		C140.3,91.9,140.4,92,140.4,92z M145.3,91.3c0.1-0.1,0.2-0.2,0.4-0.3c0,0.1,0,0.2-0.1,0.3C145.5,91.3,145.4,91.3,145.3,91.3z"/>
	<path class="st4" d="M147.4,90.2c-0.7,0.2-1.3,0.5-1.7,0.8c0-0.1,0-0.2,0-0.4c0-0.5-0.1-0.9-0.3-1.3
		C146.1,89.5,146.8,89.8,147.4,90.2z"/>
	<g>
		<path class="st14" d="M96.2,96.1c1.8,0.2,3.1,1.2,3.9,2.8c0.9,1.7,1.1,3.2,0.5,4.7c-0.5,1.4-1.6,2.6-3.2,3.7l1.2,2.8l-3.6,1.9
			l-2.5-4.3c1.7-1.2,2.9-2.2,3.4-3.1c0.5-0.9,0.6-1.9,0.1-2.8c-0.4-0.8-1-1.2-1.7-1.4c-0.7-0.1-1.6,0-2.6,0.6c-1,0.5-1.7,1.2-2,2.1
			c-0.3,0.9-0.3,1.9,0.2,3l-4.6,0.4c-0.6-1.7-0.4-3.3,0.4-4.9c0.8-1.6,2.3-3,4.6-4.1C92.5,96.3,94.5,95.9,96.2,96.1z M100.1,112.6
			c0.7,0.2,1.2,0.6,1.5,1.3c0.4,0.7,0.4,1.4,0.2,2c-0.2,0.6-0.7,1.2-1.5,1.6c-0.8,0.4-1.5,0.5-2.1,0.3c-0.7-0.2-1.2-0.6-1.5-1.3
			c-0.4-0.7-0.4-1.4-0.2-2c0.2-0.6,0.7-1.2,1.5-1.6C98.7,112.5,99.5,112.4,100.1,112.6z"/>
	</g>
	<g>
		<path class="st14" d="M196.6,93.2c1.4,1.7,1.8,3.7,1.2,6c-0.7,2.3-1.9,3.9-3.6,4.7c-1.7,0.8-3.8,1-6.1,0.6l-1.4,3.7l-4.9-1.4
			l1.5-6.1c2.6,0.5,4.6,0.5,5.9,0.1c1.3-0.4,2.1-1.2,2.5-2.5c0.3-1,0.2-2-0.4-2.7c-0.5-0.8-1.5-1.4-2.9-1.8
			c-1.4-0.4-2.6-0.3-3.7,0.2c-1.1,0.5-1.9,1.5-2.4,2.9l-4.6-3.7c1-2,2.5-3.4,4.6-4.2c2.1-0.8,4.7-0.7,7.8,0.2
			C192.9,90.2,195.1,91.5,196.6,93.2z M185.7,111.8c0.5,0.7,0.5,1.6,0.3,2.6c-0.3,1-0.8,1.6-1.6,2c-0.8,0.4-1.7,0.4-2.8,0.1
			c-1.1-0.3-1.8-0.8-2.3-1.6c-0.4-0.7-0.5-1.6-0.2-2.5c0.3-1,0.8-1.6,1.6-2c0.8-0.4,1.7-0.4,2.8-0.1
			C184.5,110.5,185.3,111,185.7,111.8z"/>
	</g>
	<g>
		<path class="st14" d="M142.3,63.9c0.6,0.8,0.8,1.7,0.5,2.7c-0.3,1-0.8,1.7-1.6,2.1c-0.8,0.4-1.7,0.5-2.7,0.3l-0.6,1.6l-2.2-0.6
			l0.7-2.7c1.2,0.2,2,0.2,2.6,0c0.6-0.2,0.9-0.5,1.1-1.1c0.1-0.5,0.1-0.9-0.2-1.2c-0.2-0.3-0.7-0.6-1.3-0.8
			c-0.6-0.2-1.2-0.1-1.6,0.1c-0.5,0.2-0.8,0.7-1.1,1.3l-2-1.6c0.4-0.9,1.1-1.5,2-1.9c0.9-0.3,2.1-0.3,3.5,0.1
			C140.7,62.5,141.7,63.1,142.3,63.9z M137.6,72c0.2,0.3,0.2,0.7,0.1,1.1c-0.1,0.4-0.4,0.7-0.7,0.9c-0.3,0.2-0.8,0.2-1.2,0.1
			c-0.5-0.1-0.8-0.4-1-0.7c-0.2-0.3-0.2-0.7-0.1-1.1c0.1-0.4,0.4-0.7,0.7-0.9c0.3-0.2,0.7-0.2,1.2-0.1C137,71.5,137.4,71.7,137.6,72
			z"/>
	</g>
</g>
</svg>
